<?xml version="1.0" standalone="no"?>
<!DOCTYPE svg PUBLIC "-//W3C//DTD SVG 20010904//EN"
 "http://www.w3.org/TR/2001/REC-SVG-20010904/DTD/svg10.dtd">
<svg version="1.0" xmlns="http://www.w3.org/2000/svg"
 width="580.000000pt" height="400.000000pt" viewBox="0 0 580.000000 400.000000"
 preserveAspectRatio="xMidYMid meet">

<g transform="translate(0.000000,400.000000) scale(0.100000,-0.100000)"
fill="#000000" stroke="none">
<path d="M2010 3505 c-242 -33 -475 -125 -605 -239 l-40 -35 110 -1 c131 0
163 -12 215 -82 l35 -48 468 0 c517 0 508 1 547 -63 16 -25 20 -50 20 -114 l0
-83 -120 0 -120 0 0 -50 0 -50 193 0 194 0 -43 45 c-49 51 -75 119 -52 140 7
7 40 22 73 35 72 28 88 40 53 40 -36 0 -86 54 -103 114 -19 63 -19 90 0 106
23 19 42 -3 61 -66 21 -72 74 -137 74 -90 0 8 17 28 38 45 28 23 32 29 15 24
-16 -4 -23 -1 -23 9 0 7 -11 29 -24 49 l-25 36 38 -7 c53 -10 101 8 123 46
l18 32 -77 40 c-166 86 -341 139 -548 167 -133 18 -366 18 -495 0z m310 -120
c26 -32 -13 -81 -47 -59 -35 22 -23 74 17 74 10 0 23 -7 30 -15z m-135 -19
c48 -48 40 -122 -16 -151 -34 -18 -50 -19 -84 -3 -58 26 -71 103 -26 149 38
38 91 40 126 5z m756 -57 c10 -32 10 -45 0 -61 -10 -17 -9 -23 5 -39 29 -32 8
-33 -41 -3 -44 28 -56 44 -34 44 7 0 9 11 6 30 -4 19 -2 30 4 30 6 0 9 6 6 14
-7 18 1 26 24 26 13 0 22 -13 30 -41z"/>
<path d="M834 3475 c-25 -33 -29 -48 -30 -105 -1 -70 -29 -174 -45 -164 -5 3
-9 14 -9 24 0 35 -39 122 -67 152 -32 33 -43 24 -43 -37 0 -60 32 -119 80
-151 l41 -27 -7 -56 c-3 -31 -8 -57 -9 -59 -2 -2 -17 26 -34 62 -29 60 -70
106 -94 106 -6 0 -8 -21 -4 -56 8 -73 41 -124 101 -153 41 -19 46 -25 46 -54
0 -17 3 -43 7 -56 4 -17 -10 -7 -54 38 -70 73 -99 80 -88 24 14 -78 70 -139
138 -150 30 -4 37 -12 55 -56 12 -28 20 -52 19 -54 -2 -1 -27 15 -56 37 -47
35 -114 60 -127 47 -10 -10 20 -57 37 -57 18 0 43 -33 33 -43 -11 -10 55 -37
91 -37 34 0 35 1 35 38 0 20 -7 46 -15 56 -20 26 -20 76 0 76 11 0 15 11 14
38 l0 37 -17 -33 c-8 -18 -20 -31 -26 -29 -12 4 -36 91 -36 134 0 29 4 33 40
44 39 12 40 14 40 56 0 23 -2 43 -5 43 -3 0 -17 -18 -31 -40 -46 -69 -65 -44
-48 61 6 35 9 37 62 50 79 19 119 56 152 143 9 23 8 24 -23 15 -18 -5 -33 -9
-35 -9 -2 0 -33 -28 -68 -62 -80 -77 -85 -51 -12 72 30 52 43 115 30 149 -9
24 -9 24 -38 -14z"/>
<path d="M4222 3419 c-109 -13 -188 -36 -278 -80 -178 -87 -286 -235 -303
-414 l-6 -70 -86 -3 -86 -3 -12 43 c-28 93 -94 201 -171 279 -41 42 -85 81
-97 88 -21 10 -23 9 -23 -11 -1 -13 -7 -34 -15 -48 -20 -34 -19 -37 15 -43 46
-10 63 -54 64 -168 1 -63 6 -102 14 -112 14 -17 0 -33 -18 -22 -14 9 -59 99
-79 159 l-17 48 -29 -42 c-16 -23 -44 -54 -62 -69 l-34 -28 26 -76 c14 -41 25
-83 25 -91 0 -14 49 -16 465 -16 l465 0 0 -96 c0 -81 3 -100 20 -121 19 -24
20 -41 20 -304 0 -259 -1 -279 -17 -279 -10 0 -54 6 -98 14 -74 13 -87 13
-145 -3 -36 -10 -65 -21 -65 -24 0 -3 23 -21 52 -41 42 -29 70 -39 145 -52 51
-9 101 -17 111 -17 13 -1 17 -11 17 -48 0 -39 -4 -47 -25 -57 -14 -7 -30 -23
-37 -37 -6 -14 -15 -25 -19 -25 -18 0 -39 -34 -39 -64 0 -19 -7 -39 -15 -46
-19 -16 -18 -105 2 -144 9 -18 13 -44 10 -67 -4 -32 -2 -38 20 -48 41 -19 105
-24 150 -12 77 21 90 56 51 136 -18 37 -20 49 -10 63 31 44 36 63 22 85 -16
26 -31 122 -30 192 1 27 2 51 4 52 1 1 29 -2 62 -8 32 -5 102 -16 154 -24 52
-9 109 -18 127 -21 l31 -6 7 57 c4 31 6 58 3 60 -2 2 -90 19 -196 36 l-192 32
0 288 0 287 133 6 c72 3 197 5 277 4 106 -1 144 2 143 10 -2 7 0 11 5 11 30
-5 34 3 12 26 -24 26 -46 34 -34 13 4 -7 4 -10 -1 -6 -5 5 -9 23 -11 40 -1 18
0 26 3 18 3 -8 21 -31 40 -52 35 -35 35 -36 14 -47 -28 -15 -27 -25 6 -46 22
-15 25 -15 20 -2 -9 23 16 49 43 45 31 -4 48 -32 34 -55 -11 -18 2 -83 16 -83
4 0 19 15 33 34 24 30 25 37 14 71 -6 22 -20 42 -34 48 -40 18 -41 70 -1 83
13 4 27 -1 40 -14 17 -16 18 -23 8 -41 -8 -17 -8 -30 1 -56 l13 -35 28 43 c27
41 27 46 15 83 -8 22 -23 43 -36 49 -42 19 -35 85 9 85 27 0 43 -26 36 -60 -3
-17 -1 -42 5 -58 l11 -27 20 38 c25 50 17 113 -19 143 -29 23 -25 59 6 69 38
12 78 -32 52 -58 -13 -13 -15 -71 -2 -63 4 3 16 32 25 65 14 49 14 64 4 80
-10 16 -9 25 2 46 13 24 12 34 -9 93 -85 247 -324 408 -631 425 -52 3 -128 1
-168 -4z m106 -126 c-25 -4 -28 -8 -28 -44 0 -22 5 -50 11 -62 10 -21 10 -21
-5 -3 -9 11 -16 15 -16 9 0 -6 -8 -14 -17 -17 -16 -6 -16 -6 0 12 11 12 17 35
17 65 0 47 0 47 33 46 30 -2 30 -2 5 -6z m105 -10 c-7 -2 -21 -2 -30 0 -10 3
-4 5 12 5 17 0 24 -2 18 -5z m20 -113 c12 -13 15 -19 6 -12 -9 6 -20 8 -24 4
-5 -4 -5 -2 -1 5 3 6 2 14 -4 18 -5 3 -9 23 -8 43 l1 37 4 -35 c3 -19 14 -46
26 -60z m-333 45 c14 -18 14 -19 -2 -7 -15 12 -23 9 -63 -23 -25 -21 -45 -41
-45 -45 0 -5 12 -18 26 -29 15 -12 22 -21 17 -21 -5 0 -20 12 -34 26 l-24 26
55 48 c30 27 55 48 55 47 1 -1 7 -11 15 -22z m546 -47 c66 -73 67 -74 47 -89
-15 -11 -16 -11 -6 1 10 11 4 23 -29 62 -25 30 -46 47 -55 44 -8 -3 -11 -1 -8
4 10 16 19 12 51 -22z m-518 -3 c-3 -3 -9 2 -12 12 -6 14 -5 15 5 6 7 -7 10
-15 7 -18z m97 -5 c-3 -5 -25 -9 -48 -8 l-42 1 45 7 c25 4 46 8 48 8 2 1 0 -2
-3 -8z m356 -3 c-6 -8 -7 -18 -3 -22 4 -5 1 -5 -6 -1 -10 6 -10 11 -1 22 6 8
14 14 16 14 3 0 0 -6 -6 -13z m-140 -24 c13 -16 12 -17 -3 -4 -17 13 -22 21
-14 21 2 0 10 -8 17 -17z m66 1 c-3 -3 -12 -4 -19 -1 -8 3 -5 6 6 6 11 1 17
-2 13 -5z m-174 -11 c-7 -2 -19 -2 -25 0 -7 3 -2 5 12 5 14 0 19 -2 13 -5z
m-50 -10 c-7 -2 -19 -2 -25 0 -7 3 -2 5 12 5 14 0 19 -2 13 -5z m110 0 c-7 -2
-19 -2 -25 0 -7 3 -2 5 12 5 14 0 19 -2 13 -5z m69 -11 c-10 -3 -8 -8 5 -18
13 -11 8 -10 -17 2 -19 9 -36 17 -37 19 -2 1 12 2 30 2 17 0 26 -2 19 -5z
m-252 -8 c0 -2 -9 -8 -20 -14 -15 -8 -18 -8 -14 3 4 11 34 21 34 11z m352 -99
c11 -21 10 -20 -37 35 l-30 35 28 -25 c16 -14 33 -34 39 -45z m-492 28 c0 -3
-7 -3 -15 1 -9 3 -15 0 -15 -7 0 -7 -7 -22 -16 -33 -8 -10 -13 -14 -10 -8 3 6
10 23 15 37 7 18 15 25 26 21 8 -3 15 -8 15 -11z m40 -10 c-23 -29 -47 -38
-47 -18 0 7 5 11 12 9 6 -3 20 4 30 16 26 29 30 25 5 -7z m254 19 c2 -4 -13
-6 -35 -4 -21 2 -39 6 -39 8 0 7 69 4 74 -4z m-97 -9 c-9 -2 -15 -9 -12 -14 3
-5 -2 -6 -11 -2 -13 5 -15 3 -9 -7 6 -9 4 -11 -4 -6 -15 9 -46 -17 -72 -59
-11 -16 -19 -25 -19 -18 0 31 96 114 130 112 11 -1 10 -3 -3 -6z m151 -7 c15
-8 38 -27 52 -43 l25 -28 -30 26 c-17 15 -43 34 -60 42 -16 9 -26 16 -22 17 4
0 20 -6 35 -14z m219 -48 c-3 -7 -5 -2 -5 12 0 14 2 19 5 13 2 -7 2 -19 0 -25z
m-36 -6 c-6 -10 -8 -30 -5 -43 l5 -24 -11 23 c-9 22 1 62 16 62 2 0 0 -8 -5
-18z m-585 -14 c4 -7 4 -10 -1 -6 -4 4 -15 2 -24 -5 -14 -11 -14 -10 -2 6 16
20 18 21 27 5z m45 -29 c-5 -13 -10 -19 -10 -12 -1 15 10 45 15 40 3 -2 0 -15
-5 -28z m-184 -41 c-2 -13 -4 -3 -4 22 0 25 2 35 4 23 2 -13 2 -33 0 -45z
m636 17 c3 -17 2 -22 0 -12 -2 9 -7 15 -11 13 -4 -2 -7 7 -7 19 0 32 14 17 18
-20z m-560 28 c-13 -2 -33 -2 -45 0 -13 2 -3 4 22 4 25 0 35 -2 23 -4z m717
-14 c0 -5 -4 -9 -8 -9 -5 0 -9 7 -9 15 0 8 4 12 9 9 4 -3 8 -9 8 -15z m-533
-41 c-3 -7 -5 -2 -5 12 0 14 2 19 5 13 2 -7 2 -19 0 -25z m474 -19 c-2 -35 1
-55 10 -61 11 -8 11 -9 -1 -5 -15 4 -26 76 -16 103 9 24 11 15 7 -37z m-564
-11 c-2 -13 -4 -5 -4 17 -1 22 1 32 4 23 2 -10 2 -28 0 -40z m700 36 c-3 -3
-12 -4 -19 -1 -8 3 -5 6 6 6 11 1 17 -2 13 -5z m33 -74 c0 -56 -2 -60 -22 -59
-17 1 -19 2 -5 6 13 4 17 15 17 59 0 30 2 54 5 54 3 0 5 -27 5 -60z m-263 -12
c-3 -7 -5 -2 -5 12 0 14 2 19 5 13 2 -7 2 -19 0 -25z m-358 -46 c6 -12 9 -22
7 -22 -10 0 -36 59 -35 77 0 12 3 9 8 -8 5 -14 14 -35 20 -47z m43 36 c-14
-14 -16 -32 -4 -24 5 3 9 -2 9 -10 0 -13 -2 -13 -15 0 -13 12 -13 18 -2 30 7
9 15 16 18 16 3 0 1 -5 -6 -12z m285 -56 c-33 -51 -97 -82 -163 -81 l-49 2 55
6 c30 4 72 15 92 25 41 20 73 60 62 78 -5 7 -3 8 6 3 10 -6 12 -4 6 11 -6 15
-5 16 5 7 10 -10 7 -21 -14 -51z m94 -3 c-16 -26 -18 -36 -8 -48 10 -14 10
-14 -4 -4 -9 7 -18 11 -21 8 -3 -3 7 19 21 47 14 29 27 48 29 42 2 -7 -6 -27
-17 -45z m76 2 c-13 -14 -29 -34 -34 -45 -10 -18 -10 -18 -17 0 -4 10 -4 15 0
12 3 -4 17 6 30 21 26 31 31 47 12 35 -7 -4 -8 -3 -4 4 4 6 14 8 22 5 13 -5
11 -10 -9 -32z m66 32 c-7 -2 -19 -2 -25 0 -7 3 -2 5 12 5 14 0 19 -2 13 -5z
m-472 -92 c14 -6 17 -10 9 -10 -15 -1 -90 45 -90 55 0 3 13 -4 29 -15 16 -12
39 -25 52 -30z m-150 22 c13 -16 12 -17 -3 -4 -17 13 -22 21 -14 21 2 0 10 -8
17 -17z m427 -43 c-7 -11 -19 -20 -26 -20 -7 0 -10 -5 -7 -10 4 -6 3 -10 -2
-9 -21 4 -34 -2 -27 -13 4 -7 3 -8 -4 -4 -7 4 -12 2 -12 -4 0 -6 -5 -8 -10 -5
-8 5 76 77 98 84 1 1 -3 -8 -10 -19z m-313 -58 c-3 -3 -11 0 -18 7 -9 10 -8
11 6 5 10 -3 15 -9 12 -12z m35 -6 c0 -2 -7 -7 -16 -10 -8 -3 -12 -2 -9 4 6
10 25 14 25 6z m107 -13 c-20 -2 -52 -2 -70 0 -17 2 0 4 38 4 39 0 53 -2 32
-4z m-180 -16 c0 -8 -11 -11 -34 -9 -18 2 -39 -1 -46 -7 -10 -8 -14 -7 -14 2
0 8 16 14 41 16 22 1 42 4 45 7 7 6 8 5 8 -9z m358 -15 c-3 -3 -11 0 -18 7 -9
10 -8 11 6 5 10 -3 15 -9 12 -12z m-35 -6 c0 -2 -15 -6 -34 -8 -19 -2 -32 0
-30 4 5 8 64 12 64 4z"/>
<path d="M1524 2831 c-17 -11 -36 -34 -43 -52 -7 -22 -11 -182 -11 -515 l0
-484 50 0 50 0 0 480 0 480 60 0 60 0 0 55 0 55 -67 0 c-49 0 -77 -5 -99 -19z"/>
<path d="M5041 2773 c0 -6 -4 -20 -7 -30 -5 -14 -4 -15 5 -7 7 7 11 20 8 30
-3 11 -5 14 -6 7z"/>
<path d="M5017 2682 c-23 -25 -41 -75 -25 -70 7 3 14 14 16 26 2 12 7 22 12
22 4 0 10 9 13 20 6 24 4 25 -16 2z"/>
<path d="M4958 2563 c-17 -20 -41 -63 -35 -63 8 0 59 71 55 76 -3 2 -12 -4
-20 -13z"/>
<path d="M4726 2432 c4 -9 9 -34 12 -54 4 -40 12 -46 30 -25 16 19 -6 84 -30
90 -15 4 -18 2 -12 -11z"/>
<path d="M3161 2329 c6 -13 9 -38 5 -60 -6 -36 -5 -39 18 -39 19 0 25 6 28 28
l4 27 12 -27 c8 -20 19 -28 37 -28 30 0 31 7 5 40 -13 18 -16 28 -8 37 19 23
-10 43 -64 43 -47 0 -48 -1 -37 -21z m56 -21 c-3 -8 -6 -5 -6 6 -1 11 2 17 5
13 3 -3 4 -12 1 -19z"/>
<path d="M771 2324 c-180 -48 -279 -265 -226 -492 35 -147 126 -267 225 -296
30 -9 60 -16 67 -16 11 0 13 77 13 410 0 322 -3 410 -12 409 -7 0 -37 -7 -67
-15z m9 -198 c-1 -5 4 -12 10 -16 7 -4 1 -7 -14 -7 -25 0 -25 1 -9 14 17 14
17 14 0 9 -11 -4 -16 -2 -12 5 8 12 27 8 25 -5z m-45 -26 c-2 -11 0 -20 6 -20
5 0 9 -5 9 -12 0 -6 -9 -3 -20 7 -15 14 -17 21 -9 32 16 18 19 16 14 -7z m102
-6 c-3 -3 -12 -4 -19 -1 -8 3 -5 6 6 6 11 1 17 -2 13 -5z m-37 -48 c0 -3 -4
-8 -10 -11 -5 -3 -10 -1 -10 4 0 6 5 11 10 11 6 0 10 -2 10 -4z m-71 -62 c-12
-13 -32 -23 -43 -23 -20 1 -20 1 -1 6 27 7 55 33 56 52 0 11 2 12 6 3 3 -7 -5
-24 -18 -38z m35 4 c-11 -21 -15 -47 -12 -80 3 -27 3 -46 0 -43 -9 8 -19 105
-12 105 4 0 12 11 18 25 6 14 14 25 17 25 3 0 -2 -14 -11 -32z m58 -7 c-9 -16
-18 -28 -21 -26 -4 5 27 55 34 55 2 0 -4 -13 -13 -29z m-142 -71 c23 0 60 -46
60 -75 0 -12 -9 -30 -20 -40 -15 -14 -17 -21 -9 -31 6 -8 16 -11 22 -7 5 3 7
1 3 -5 -13 -22 13 -22 28 0 9 12 16 18 16 12 0 -6 -8 -18 -18 -27 -17 -16 -20
-15 -45 11 -27 29 -27 29 -7 47 37 34 13 105 -36 105 -22 0 -24 4 -22 43 l1
42 4 -37 c3 -29 9 -38 23 -38z m132 -5 c-6 -34 -12 -32 -12 6 0 16 4 28 9 25
4 -3 6 -17 3 -31z m19 -52 c13 -16 12 -17 -3 -4 -10 7 -18 15 -18 17 0 8 8 3
21 -13z m9 -79 c0 -3 -13 4 -30 16 -16 12 -30 24 -30 26 0 3 14 -4 30 -16 17
-12 30 -24 30 -26z m-10 -19 c11 -13 10 -14 -4 -9 -9 3 -16 10 -16 15 0 13 6
11 20 -6z"/>
<path d="M3310 2300 c-24 -24 -25 -43 -6 -60 18 -14 58 -10 64 8 2 7 -2 10
-11 6 -8 -3 -18 -1 -22 5 -4 7 4 11 19 11 31 0 35 25 7 40 -26 13 -28 13 -51
-10z"/>
<path d="M3400 2305 c-11 -13 -10 -18 4 -33 20 -23 21 -39 1 -22 -12 10 -15
10 -15 -4 0 -11 9 -16 30 -16 38 0 49 24 24 51 -17 19 -17 20 0 13 14 -5 17
-3 14 7 -7 20 -42 23 -58 4z"/>
<path d="M3483 2314 c-7 -3 -10 -11 -8 -17 2 -7 6 -24 9 -38 6 -26 8 -27 81
-27 l75 0 0 29 c0 16 5 29 11 29 7 0 9 -11 6 -30 -6 -27 -4 -30 18 -30 21 0
25 5 25 31 0 19 4 28 11 23 6 -3 8 -17 5 -30 -6 -21 -3 -24 19 -24 21 0 25 5
25 28 0 15 -4 32 -8 39 -9 14 -82 20 -100 9 -7 -4 -12 -3 -12 2 0 6 -9 8 -20
5 -15 -4 -20 -14 -20 -40 0 -20 -4 -32 -10 -28 -5 3 -10 19 -10 35 0 32 -11
43 -32 35 -10 -4 -13 -16 -10 -35 2 -17 0 -30 -6 -30 -6 0 -12 14 -14 32 -3
32 -13 40 -35 32z"/>
<path d="M3786 2304 c-20 -19 -20 -48 -2 -64 18 -14 58 -10 63 7 3 7 -3 9 -16
6 -12 -3 -21 -1 -21 6 0 6 9 11 19 11 27 0 34 15 15 34 -20 20 -38 20 -58 0z"/>
<path d="M4742 1955 c3 -15 -1 -30 -9 -37 -8 -6 -24 -30 -35 -52 -41 -79 -20
-289 31 -320 8 -5 11 -108 11 -348 0 -461 29 -428 -373 -428 l-263 0 12 73
c20 117 33 279 27 325 -5 35 -9 42 -22 36 -27 -13 -179 -17 -210 -6 -25 9 -31
8 -35 -6 -13 -49 -16 -137 -6 -195 10 -57 9 -73 -5 -118 -35 -106 -37 -219 -4
-219 21 0 91 136 133 255 13 37 23 -4 14 -58 -5 -29 -6 -71 -3 -94 3 -23 2
-51 -4 -61 -13 -24 -70 -52 -106 -52 -24 0 -26 -2 -14 -16 12 -15 11 -16 -11
-9 -14 4 -26 12 -28 16 -2 5 -260 9 -573 9 -625 0 -612 -1 -644 60 -13 24 -15
89 -15 410 l0 380 -520 0 c-340 0 -520 3 -520 10 0 6 -22 10 -50 10 l-50 0 0
-164 c0 -152 1 -165 22 -191 42 -54 51 -55 519 -55 l431 0 -6 -57 c-3 -32 -8
-93 -11 -135 l-7 -78 -186 -2 -187 -3 -3 -47 -3 -48 -152 0 c-118 -1 -156 -4
-171 -15 -17 -13 -22 -13 -42 0 -16 10 -49 15 -104 15 l-80 0 0 35 c0 19 -5
44 -12 54 -9 15 -7 24 11 50 12 17 26 31 30 31 4 0 28 -29 52 -65 24 -36 49
-65 55 -65 7 0 22 9 35 19 22 18 23 21 11 58 -26 75 -104 224 -123 234 -27 14
-54 3 -100 -38 -24 -22 -39 -44 -39 -59 0 -49 -18 -73 -77 -99 -32 -15 -68
-32 -81 -38 -16 -8 -25 -8 -34 1 -8 8 -5 10 13 6 l24 -5 -25 15 c-14 8 -26 11
-28 7 -5 -14 46 -121 57 -121 6 0 11 -5 11 -11 0 -7 -52 -10 -167 -7 -257 5
-253 -1 -253 345 l0 237 -26 -35 c-48 -62 -102 -187 -114 -262 -12 -69 -8
-224 6 -261 6 -16 1 -19 -48 -30 -16 -4 -28 -11 -28 -16 0 -22 181 -50 494
-75 104 -8 191 -17 193 -19 2 -2 0 -22 -5 -44 -11 -46 -1 -62 35 -62 18 0 29
12 49 53 l26 52 116 -7 c200 -11 661 -28 1037 -38 421 -11 1892 -12 1950 -1
l40 7 -53 18 c-64 22 -58 33 24 46 73 11 423 30 582 31 150 1 206 9 210 30 2
12 -10 22 -42 34 -26 10 -46 19 -46 20 0 1 11 22 25 47 45 80 58 158 52 308
-4 107 -10 154 -31 225 -15 50 -31 94 -35 98 -5 5 -15 -1 -24 -13 -14 -20 -14
-18 -10 24 6 51 -3 100 -17 91 -5 -3 -7 1 -4 9 7 17 -28 39 -56 34 -13 -2 -27
9 -43 31 l-23 34 20 37 c30 56 18 73 -49 68 -59 -5 -63 -1 -81 74 -7 31 -80
84 -169 124 -68 30 -68 30 -63 -1z m385 -400 c0 -8 -7 -17 -15 -20 -8 -3 -11
-12 -8 -21 3 -8 2 -12 -4 -9 -6 4 -10 -7 -10 -25 0 -21 4 -29 12 -24 6 4 8 3
5 -4 -8 -12 2 -44 12 -38 3 2 7 -23 9 -56 2 -40 0 -58 -7 -53 -6 3 -11 12 -11
18 0 7 -15 35 -34 62 -51 77 -52 88 -12 119 19 14 38 35 41 46 7 23 22 27 22
5z m-148 -177 c-27 -87 -30 -101 -24 -126 3 -15 21 -47 40 -71 24 -30 35 -54
35 -77 0 -18 5 -34 11 -36 6 -2 -9 -4 -32 -4 -24 -1 -34 1 -21 3 12 3 22 7 22
11 0 4 -18 33 -40 65 -59 88 -63 132 -19 225 24 50 42 56 28 10z m241 12 c0
-5 -2 -10 -4 -10 -3 0 -8 5 -11 10 -3 6 -1 10 4 10 6 0 11 -4 11 -10z m-50
-64 c0 -6 -4 -5 -9 3 -7 11 -9 11 -14 0 -3 -8 -4 -4 -4 8 1 17 4 19 14 11 7
-6 13 -16 13 -22z m46 -43 c8 -63 -8 -115 -52 -170 -25 -30 -29 -40 -16 -38
81 16 82 16 81 -13 -2 -24 -2 -24 -6 -4 -2 12 -8 20 -13 17 -11 -7 -119 -9
-126 -3 -5 6 44 96 57 104 5 3 4 14 -3 27 -10 21 -10 21 7 7 17 -14 18 -13 13
12 -3 15 -1 25 3 22 5 -3 9 11 9 31 0 43 18 81 31 68 5 -5 12 -32 15 -60z
m-90 -17 c0 -13 -4 -22 -8 -20 -3 2 -18 -10 -32 -27 -14 -17 -26 -27 -26 -24
0 4 14 23 30 42 17 18 30 38 30 43 0 6 2 10 4 10 2 0 3 -11 2 -24z m-16 -50
c0 -2 -8 -10 -17 -17 -16 -13 -17 -12 -4 4 13 16 21 21 21 13z m-2 -59 c-20
-18 -42 -43 -47 -57 -8 -21 -10 -16 -9 30 0 39 2 47 7 27 l6 -27 30 29 c17 16
35 29 40 30 6 0 -7 -14 -27 -32z m-180 -84 c-10 -2 -26 -2 -35 0 -10 3 -2 5
17 5 19 0 27 -2 18 -5z m-61 -70 c-3 -10 -5 -4 -5 12 0 17 2 24 5 18 2 -7 2
-21 0 -30z m352 -10 c-1 -37 -1 -37 -8 -8 -7 28 -5 45 5 45 2 0 3 -17 3 -37z
m-329 -108 c1 -5 1 -23 0 -40 -2 -23 -4 -19 -10 20 -5 28 -8 64 -8 80 0 25 2
23 8 -10 4 -22 8 -44 10 -50z m317 3 c-2 -13 -4 -5 -4 17 -1 22 1 32 4 23 2
-10 2 -28 0 -40z m-10 -80 c-2 -13 -4 -5 -4 17 -1 22 1 32 4 23 2 -10 2 -28 0
-40z m-295 -28 c3 -16 1 -30 -4 -30 -4 0 -8 14 -8 30 0 17 2 30 4 30 2 0 6
-13 8 -30z m285 -22 c-3 -8 -6 -5 -6 6 -1 11 2 17 5 13 3 -3 4 -12 1 -19z
m-80 -22 c-40 -5 -95 -5 -130 0 -55 8 -47 9 68 9 120 0 125 0 62 -9z m-1028
-123 c2 -2 -8 -3 -22 -3 -21 0 -27 5 -27 22 0 21 0 21 23 2 12 -10 24 -20 26
-21z"/>
<path d="M1187 1342 c-24 -26 -21 -77 5 -102 12 -11 25 -20 29 -20 4 0 6 -8 5
-17 -1 -17 58 -42 71 -30 10 10 -18 37 -38 37 -42 0 -54 80 -14 98 28 13 33
37 9 46 -28 11 -50 6 -67 -12z"/>
<path d="M1209 1133 c6 -12 11 -49 11 -82 0 -34 4 -61 10 -61 5 0 7 -6 4 -14
-3 -8 3 -19 13 -24 15 -8 25 -2 58 36 22 25 33 42 25 37 -22 -14 -60 -6 -84
17 -11 12 -15 18 -8 14 23 -13 13 42 -14 71 -20 22 -23 23 -15 6z m46 -123
c-3 -5 8 -7 25 -5 25 3 29 1 20 -10 -6 -7 -22 -15 -36 -18 -13 -2 -22 -2 -19
1 2 3 0 11 -6 18 -12 15 -3 37 12 28 5 -3 7 -9 4 -14z"/>
<path d="M1338 433 c7 -3 16 -2 19 1 4 3 -2 6 -13 5 -11 0 -14 -3 -6 -6z"/>
</g>
</svg>
